<?xml version="1.0" encoding="UTF-8" standalone="no"?>
<!DOCTYPE svg PUBLIC "-//W3C//DTD SVG 1.1//EN" "http://www.w3.org/Graphics/SVG/1.1/DTD/svg11.dtd">
<svg version="1.1" xmlns="http://www.w3.org/2000/svg" xmlns:xlink="http://www.w3.org/1999/xlink" preserveAspectRatio="xMidYMid meet" viewBox="0 0 640 640" width="640" height="640"><defs><path d="M164.61 302.29C164.61 347.72 127.73 384.59 82.3 384.59C36.88 384.59 0 347.72 0 302.29C0 256.87 36.88 219.99 82.3 219.99C127.73 219.99 164.61 256.87 164.61 302.29Z" id="b3f9eCHHFI"></path><path d="M640 302.29C640 347.72 603.12 384.59 557.7 384.59C512.27 384.59 475.39 347.72 475.39 302.29C475.39 256.87 512.27 219.99 557.7 219.99C603.12 219.99 640 256.87 640 302.29Z" id="a8h3CtpDha"></path><path d="M399.87 302.29C399.87 347.72 362.99 384.59 317.56 384.59C272.14 384.59 235.26 347.72 235.26 302.29C235.26 256.87 272.14 219.99 317.56 219.99C362.99 219.99 399.87 256.87 399.87 302.29Z" id="fcZ9QRvjn"></path></defs><g><g><g><use xlink:href="#b3f9eCHHFI" opacity="1" fill="#000000" fill-opacity="1"></use></g><g><use xlink:href="#a8h3CtpDha" opacity="1" fill="#000000" fill-opacity="1"></use></g><g><use xlink:href="#fcZ9QRvjn" opacity="1" fill="#000000" fill-opacity="1"></use></g></g></g></svg>